<?xml version="1.0" encoding="utf-8" ?><svg xmlns="http://www.w3.org/2000/svg" xmlns:xlink="http://www.w3.org/1999/xlink" width="1024" height="1024" viewBox="0 0 1024 1024"><defs><linearGradient id="gradient_0" gradientUnits="userSpaceOnUse" x1="604.83386" y1="1000.8309" x2="832.03351" y2="470.57236"><stop offset="0" stop-color="#2566AD"/><stop offset="1" stop-color="#4593D1"/></linearGradient></defs><path fill="url(#gradient_0)" d="M700.052 412.327C702.816 415.453 714.404 437.801 717.367 443.28L758.429 518.716L840.867 668.427C881.773 742.132 923.666 816.639 963.479 890.91C950.174 890.111 929.687 890.727 916 890.725L823.986 890.721L541.75 890.744L419.543 890.77C394.12 890.659 368.696 890.729 343.273 890.981C347.828 884.37 353.791 872.832 357.865 865.458L382.939 820.002L420.452 752.215C427.85 738.897 435.834 725.203 442.715 711.699C451.598 711.544 460.88 711.571 469.78 711.691C534.002 712.56 598.783 710.576 662.953 712.009C660.816 707.941 658.467 703.648 656.15 699.694C636.27 665.767 618.47 629.578 598.105 596.024C600.121 591.369 607.384 578.942 610.026 574.193L634.427 530.476C656.23 491.423 677.849 451 700.052 412.327Z"/><path fill="#235888" d="M72.319 890.999C76.1565 885.512 80.2179 877.635 83.4727 871.657L99.57 842.006L152.62 744.596L336.999 405.148L388.88 309.488C396.516 295.388 405.502 277.263 413.558 263.849L474.282 369.574C478.697 377.139 515.754 439.087 516.461 442.312L515.856 442.072C513.907 443.174 447.966 567.871 440.237 582.181L275.204 890.77C258.505 891.09 240.811 890.771 224.029 890.767L124.469 890.768C107.232 890.766 89.4872 890.531 72.319 890.999Z"/><path fill="#3277B7" d="M413.558 263.849L516.398 76.9697C520.647 83.115 527.589 97.22 531.319 104.246L558.645 155.641L624.36 277.611L648.537 323.024C652.371 330.25 656.636 338.841 660.665 345.824C657.896 352.757 652.813 361.773 649.186 368.501L632.448 399.767L600.329 460.504C588.696 482.182 575.588 506.024 564.783 528.048C560.994 522.501 556.41 513.761 553.015 507.702L533.615 473.177C531.528 469.478 517.167 444.581 516.461 442.312C515.754 439.087 478.697 377.139 474.282 369.574L413.558 263.849Z"/></svg>